<mxfile host="app.diagrams.net" modified="2024-04-04T10:18:37.310Z" agent="Mozilla/5.0 (Macintosh; Intel Mac OS X 10_15_7) AppleWebKit/537.36 (KHTML, like Gecko) Chrome/123.0.0.0 Safari/537.36" version="24.2.2" etag="M8PaFknLmUO3_bmAI82H" type="github">
  <diagram name="Page-1" id="URJB8ZtFO4CdTDm1-7Hg">
    <mxGraphModel>
      <root>
        <mxCell id="0" />
        <mxCell id="1" parent="0" />
      </root>
    </mxGraphModel>
  </diagram>
</mxfile>
